<?xml version="1.0" encoding="utf-8"?>
<!-- Generator: Adobe Illustrator 23.0.0, SVG Export Plug-In . SVG Version: 6.00 Build 0)  -->
<svg version="1.1" id="レイヤー_1" xmlns="http://www.w3.org/2000/svg" xmlns:xlink="http://www.w3.org/1999/xlink" x="0px"
	 y="0px" viewBox="0 0 640 640" style="enable-background:new 0 0 640 640;" xml:space="preserve">
<style type="text/css">
	.st0{fill:#B3B3B3;stroke:#807F80;stroke-width:3;stroke-miterlimit:10;}
</style>
<g>
	<path class="st0" d="M372,278.9c35.1-18.4,59.3-56.5,59.3-100.6c0-62-47.9-112.3-106.9-112.3s-106.9,50.3-106.9,112.3
		c0,43,23,80.3,56.7,99.2c-60,12.1-104,47.4-106.7,89.4h305C469.9,326.3,428.8,292.1,372,278.9z"/>
</g>
<g>
	<path class="st0" d="M219.5,469.9c35.1-18.4,59.3-56.5,59.3-100.6c0-62-47.9-112.3-106.9-112.3S65,307.3,65,369.3
		c0,43,23,80.3,56.7,99.2c-60,12.1-104,47.4-106.7,89.4h305C317.4,517.3,276.3,483.1,219.5,469.9z"/>
</g>
<g>
	<path class="st0" d="M524.6,469.9c35.1-18.4,59.3-56.5,59.3-100.6c0-62-47.9-112.3-106.9-112.3S370,307.3,370,369.3
		c0,43,23,80.3,56.7,99.2c-60,12.1-104,47.4-106.7,89.4h305C622.4,517.3,581.3,483.1,524.6,469.9z"/>
</g>
</svg>
